<svg xmlns="http://www.w3.org/2000/svg" width="1000" height="1120" viewBox="0 0 100 112"><path fill="green" d="M79.5 112c-1-.7-.3-3.5 2-9.5l1.2-3.8.2-.8-1.2-1c-1.3-1.4-3.5-3.2-8.6-7-6-4.7-11.7-9.4-14.8-12.2-1.4-1.4-2-1.7-2.4-1.5-.5.3-4.4 4.3-10.4 11-11.2 12-18 19.2-19 20l-.4.3-.5-.4c-3-2-14.4-12.3-17.3-15.7-1-1.2-2-2.7-2-3.3l.4-.7c.2-.3.4-.3 1.2-.2 1 0 3.8.8 7 1.8 2.6 1 3.2 1 4 .6 1.2-.5 2.2-1.6 8.3-9 9.8-12.2 10-12.6 10-14.2 0-1.2-.2-1.7-1-2-1-.5-1.5-.4-3.6.4l-2.5 1c-.8 0-1 0-1.7-.3-.5-.2-2.4-1.2-4-2.2-2-1-5.2-3-7.4-4.3-6-3.5-6.5-3.8-6.7-4.8-.2-1-1.2-2-4.4-5C.4 44.4-.7 42.8.2 40.8c.6-1.4 2.8-4 3.8-4.5.8-.4 2-.4 2.8 0 1 .4 2.3 1.5 4.3 3.5 3.5 3.2 4.5 4 7 5l5 2 4 1.7c1.2.4 3.2 1 3.7 1 1.2 0 2.4-1.2 5-4.7 1.6-2.3 2.3-3.2 4.4-5.6 1.3-1.5 2.4-3 2.4-3.4 0-.5-.6-1.2-1.4-1.8-.8-.5-1.3-.7-3-1.3-1-.4-2.6-1.5-3.5-2.4l-1-1.6c-.6-1.3-.6-3.2 0-6.2l.4-2.3-1.6-1.5L31 17l.4-.3c.6-.6 2-1.4 2.5-1.4.6 0 1.4-.8 2.6-2.8 1.6-2.7 1.8-3 1.5-3.2-3.8-2.3-7.6-5-7.8-5.8 0-.4.6-.8 1.3-1 1.6-.2 4 .2 7.7 1.3l2.4.7 1-1C45 .7 46 0 47 0L53 2.8l11 5 5 2.5c.2 0-.2 5-.3 6 0 .2 1.4 1 4.4 2.6 5.8 2.8 7.2 3.8 6.5 4.5-.6.6-5 .7-8.7 0-2.2-.2-3.6-.3-4 0-1.2.6-7 9.2-7.3 10.7 0 .5.6 2.2 3.6 8.4 2.4 5 3.7 8 5 11.6.5 1.6 1 3.4 1.4 4 1.2 3.3 5 7.8 16.7 20 10.5 11 12.5 13.2 13 14.3.4.8.4 1.8 0 2.5-1.2 2.8-14 14.7-17.5 16.5-.8.4-2.3.6-2.7.4z"/></svg>