<svg xmlns="http://www.w3.org/2000/svg" width="1000" height="1090" viewBox="0 0 100 109"><path fill="red" d="M47.2 109c-3.4-.4-7-1-8.2-1.6l-.5-.3.4-.2c0-.2.7-.6 1.2-1 1.4-.7 1.5-1 1.5-2l-1-7c-1.3-7.8-2-13.5-3-20.7-1.8-15.8-2-17-3.6-20.2-1.2-2.5-3.3-4.2-6.3-5.2-3.2-1-7.4-1.7-13-2-1.7 0-3.2 0-3.6-.2-.6-.2-1.2-.7-1.7-1.7-.3-.5-.3-.5-1.3-.5l-3 .3c-2 .4-2.2.4-2.8 0-.3 0-.8-.5-1-1-2.2-3-1.2-8 1.6-8.7.6-.2 1.5 0 3 .7.6.3 1 .4 2 .4 1.3 0 1.6-.2 2.5-1 1.3-1 4.2-1.6 13-2.5 7-.7 6.4-.6 15.2-4l3.5-1.8c.3-.2.4-.5.4-1 0-1 0-1-1-1.8-.4-.6-1.3-1.4-2-2-1-1-2-2.3-4-6.3-2.3-4-2-3.6-5.6-5-2.4-1-3-1.4-3-1.7 0-.4 2-1 5.6-1.8 3.3-.6 3.4-.7 6-3 5-4.7 9-6.5 13.2-6.2 4 .3 8.2 2.4 12 5.7C67.4 9 67.4 9 71 9.7c2.3.7 4 1.2 4.3 1.6.2 0 0 .2-.5.6-.4 0-1.6.6-2.7 1l-2.4 1.5c-.4.3-1 1-1.7 2.6-2 3.8-3.6 5.7-6.5 7.6-2.4 1.6-2.7 2-2.7 3 0 .7.5 1.2 1.7 1.8 3 1.3 10 4.2 11 4.5 1.4.3 2.3.4 7.6 1 7.8.6 10.5 1 11.7 2 .8.4 2 .5 3.5.2 2.7-.6 3.4-.5 4.3.4 1.5 1.5 2 4 1 6.6-.3 1.2-1 2-1.7 2.3-1 .5-1.6.4-4-.4l-2-.6c-.2 0-.6.5-1.4 1.4-1.3 1.5-1 1.4-5.3 1.6-5.5 0-9.6.6-11.5 1.3-2.3.7-4 2-4.6 3.5-1 2-1.8 6.2-2.5 14-1 10-2 17.8-4.4 29.5L61 104v1l.6.4c.4 0 1 .4 1.5.5.3 0 .8.3 1 .5l.3.3-.4.2c-1.3.6-5.4 1.4-8.3 1.7-2.8.3-6.5.4-8.5.2z"/></svg>